<svg width="149" height="65" viewBox="0 0 149 65" fill="none" xmlns="http://www.w3.org/2000/svg">
<path d="M133.281 23.7732C135.068 23.7732 136.815 24.3031 138.3 25.2957C139.786 26.2884 140.944 27.6993 141.627 29.35C142.311 31.0007 142.49 32.8172 142.142 34.5696C141.793 36.322 140.933 37.9317 139.669 39.1951C138.406 40.4585 136.796 41.3189 135.044 41.6674C133.291 42.016 131.475 41.8371 129.824 41.1534C128.173 40.4696 126.763 39.3117 125.77 37.8261C124.777 36.3405 124.247 34.5939 124.247 32.8071C124.25 30.412 125.203 28.1156 126.896 26.422C128.59 24.7284 130.886 23.7758 133.281 23.7732ZM133.281 17.0889C130.172 17.0889 127.134 18.0107 124.549 19.7379C121.964 21.465 119.949 23.9199 118.759 26.792C117.57 29.6642 117.259 32.8246 117.865 35.8736C118.472 38.9227 119.969 41.7234 122.167 43.9216C124.365 46.1199 127.166 47.6169 130.215 48.2234C133.264 48.8299 136.424 48.5186 139.296 47.3289C142.169 46.1392 144.623 44.1246 146.351 41.5397C148.078 38.9549 149 35.9159 149 32.8071C149 28.6384 147.344 24.6404 144.396 21.6926C141.448 18.7449 137.45 17.0889 133.281 17.0889Z" fill="#151515"/>
<path d="M56.1384 18.2356V21.8006C53.6818 19.0502 50.3021 17.2789 46.4241 17.3412C38.7909 17.3412 32.442 24.3849 32.3525 32.9221C32.442 41.4592 38.7909 48.1963 46.4241 48.1963C50.3021 48.2586 53.6818 46.4873 56.1384 43.7369V47.329H62.9825V18.2356H56.1384ZM47.7961 41.8745C42.7361 41.8745 39.0577 37.5828 38.9587 32.6426C39.0577 27.7024 42.7361 23.6981 47.7961 23.6981C52.8561 23.6981 56.814 27.8509 56.913 32.7847C56.814 37.7233 52.8561 41.8697 47.7961 41.8697V41.8745Z" fill="#151515"/>
<path d="M110.472 47.4531H118.63L104.944 30.588L115.993 18.251H107.94L98.0087 29.3406V0.63208H91.3228V47.37H98.0087V38.3329L100.655 35.3765L110.472 47.4531Z" fill="#151515"/>
<path d="M25.9836 18.2532L16.699 36.0127L7.45584 18.333H0L12.971 43.1443L1.69625 64.71H9.0291L33.3165 18.2532H25.9836Z" fill="#151515"/>
<path d="M85.5407 17.3411C81.6004 17.2789 78.1775 19.1061 75.7114 21.93V18.2595H68.9424V47.3737H75.7114V31.3568C76.1251 23.3707 84.6127 23.7157 86.8424 24.0958V17.4114C86.4101 17.3646 85.9756 17.3412 85.5407 17.3411Z" fill="#151515"/>
</svg>
